<?xml version="1.0" encoding="UTF-8"?>
<!DOCTYPE svg PUBLIC "-//W3C//DTD SVG 1.1//EN" "http://www.w3.org/Graphics/SVG/1.1/DTD/svg11.dtd">
<svg xmlns="http://www.w3.org/2000/svg" version="1.1" width="272px" height="92px" style="shape-rendering:geometricPrecision; text-rendering:geometricPrecision; image-rendering:optimizeQuality; fill-rule:evenodd; clip-rule:evenodd" xmlns:xlink="http://www.w3.org/1999/xlink">
<g><path style="opacity:0.731" fill="#000000" d="M 75.5,26.5 C 71.9012,28.2629 69.0678,30.9295 67,34.5C 61.0939,49.0635 51.5939,60.5635 38.5,69C 26.9216,75.1113 15.0882,75.9447 3,71.5C -0.448901,63.6311 1.88443,60.6311 10,62.5C 11.0419,65.8039 9.87525,67.9705 6.5,69C 22.2144,72.8723 35.0477,68.3723 45,55.5C 52,46.5 59,37.5 66,28.5C 70.2139,24.6179 74.7139,21.1179 79.5,18C 71.2139,16.5464 62.8805,16.213 54.5,17C 44.2867,19.0519 37.2867,24.8852 33.5,34.5C 34.577,37.8758 36.9103,39.5425 40.5,39.5C 51.072,37.2665 58.7387,31.2665 63.5,21.5C 64.8333,20.1667 66.1667,20.1667 67.5,21.5C 62.5824,34.2606 53.4158,41.5939 40,43.5C 33.5235,43.5304 30.3569,40.3637 30.5,34C 30.9492,27.5339 33.9492,22.5339 39.5,19C 44.1719,16.1635 49.1719,14.1635 54.5,13C 72.8671,13.0319 91.2004,13.0319 109.5,13C 107.726,15.4397 105.392,17.1064 102.5,18C 97.175,19.5682 91.8417,19.7349 86.5,18.5C 82.234,20.4544 78.5674,23.1211 75.5,26.5 Z"/></g>
<g><path style="opacity:0.64" fill="#000000" d="M 75.5,26.5 C 77.1439,26.2865 78.6439,26.6198 80,27.5C 81.4013,31.8708 82.9013,36.2041 84.5,40.5C 85.6888,41.4287 87.0222,41.762 88.5,41.5C 88.802,36.3214 88.1353,31.3214 86.5,26.5C 88.8333,26.5 91.1667,26.5 93.5,26.5C 92.1667,32.5 92.1667,38.5 93.5,44.5C 88.8333,44.5 84.1667,44.5 79.5,44.5C 79.4208,43.0695 79.7542,41.7362 80.5,40.5C 78.5,39.1667 76.5,39.1667 74.5,40.5C 75.2458,41.7362 75.5792,43.0695 75.5,44.5C 73.5,44.5 71.5,44.5 69.5,44.5C 71.6866,38.6068 73.6866,32.6068 75.5,26.5 Z M 76.5,33.5 C 78.4646,33.9483 78.7979,34.9483 77.5,36.5C 76.6143,35.675 76.281,34.675 76.5,33.5 Z"/></g>
<g><path style="opacity:0.676" fill="#000000" d="M 100.5,26.5 C 103.249,26.2739 105.916,26.6072 108.5,27.5C 109.452,29.0453 109.785,30.712 109.5,32.5C 107.332,31.8214 105.332,30.8214 103.5,29.5C 99.0655,31.6349 97.8989,34.9682 100,39.5C 101.444,41.1554 103.278,41.822 105.5,41.5C 105.643,39.7376 105.309,38.0709 104.5,36.5C 106.766,35.6858 109.1,35.1858 111.5,35C 113.431,27.5329 118.098,25.0329 125.5,27.5C 126.466,29.396 126.799,31.396 126.5,33.5C 125.5,33.5 124.5,33.5 123.5,33.5C 122.677,29.081 120.51,28.4144 117,31.5C 114.567,39.902 117.4,42.5686 125.5,39.5C 126.83,41.3469 126.497,42.8469 124.5,44C 121.036,44.8166 117.702,44.4833 114.5,43C 113.139,41.4157 112.472,39.5824 112.5,37.5C 111.5,37.5 110.5,37.5 109.5,37.5C 109.917,40.0792 109.25,42.2458 107.5,44C 96.8053,45.4669 92.9719,40.9669 96,30.5C 97.3968,28.9297 98.8968,27.5964 100.5,26.5 Z"/></g>
<g><path style="opacity:0.658" fill="#000000" d="M 133.5,26.5 C 135.833,26.5 138.167,26.5 140.5,26.5C 140.64,28.1238 139.973,29.2904 138.5,30C 139.255,32.1748 140.088,34.3415 141,36.5C 143.162,23.682 145.996,23.3487 149.5,35.5C 151.768,32.7021 152.102,29.7021 150.5,26.5C 152.5,26.5 154.5,26.5 156.5,26.5C 154.223,32.2662 152.557,38.2662 151.5,44.5C 150.022,44.762 148.689,44.4287 147.5,43.5C 146.512,40.5499 145.679,37.5499 145,34.5C 143.85,37.7679 143.016,41.1012 142.5,44.5C 141.167,44.5 139.833,44.5 138.5,44.5C 137.132,38.3549 135.465,32.3549 133.5,26.5 Z"/></g>
<g><path style="opacity:0.664" fill="#000000" d="M 165.5,26.5 C 167.5,26.5 169.5,26.5 171.5,26.5C 171.5,28.1667 171.5,29.8333 171.5,31.5C 178.744,31.9733 180.91,35.6399 178,42.5C 177.25,43.1258 176.416,43.6258 175.5,44C 172.729,43.6533 170.062,43.82 167.5,44.5C 167.876,38.3281 167.209,32.3281 165.5,26.5 Z M 172.5,34.5 C 175.965,36.2635 176.299,38.5969 173.5,41.5C 170.131,39.5075 169.798,37.1742 172.5,34.5 Z"/></g>
<g><path style="opacity:0.673" fill="#000000" d="M 194.5,41.5 C 190.307,44.1974 185.64,45.1974 180.5,44.5C 181.833,38.5 181.833,32.5 180.5,26.5C 185.118,25.9239 189.285,26.9239 193,29.5C 193.651,31.235 193.485,32.9017 192.5,34.5C 194.171,36.5098 194.838,38.8431 194.5,41.5 Z M 185.5,29.5 C 190.757,30.9704 190.757,32.3037 185.5,33.5C 185.5,32.1667 185.5,30.8333 185.5,29.5 Z M 185.5,36.5 C 187.714,36.2907 189.381,37.124 190.5,39C 189.381,40.876 187.714,41.7093 185.5,41.5C 185.5,39.8333 185.5,38.1667 185.5,36.5 Z"/></g>
<g><path style="opacity:0.666" fill="#000000" d="M 158.5,31.5 C 164.008,30.6777 166.675,33.0111 166.5,38.5C 163.813,38.3359 161.146,38.5026 158.5,39C 160.414,42.1334 162.581,42.3001 165,39.5C 165.783,41.4335 165.283,42.9335 163.5,44C 158.272,45.2252 155.272,43.2252 154.5,38C 154.895,35.1398 156.228,32.9732 158.5,31.5 Z"/></g>
<g><path style="opacity:0.634" fill="#000000" d="M 216.5,34.5 C 217.167,43.5223 213.5,46.1889 205.5,42.5C 204.626,40.2534 204.292,37.9201 204.5,35.5C 202.549,35.2267 201.049,35.8934 200,37.5C 199.876,39.9357 200.376,42.269 201.5,44.5C 199.167,44.5 196.833,44.5 194.5,44.5C 194.5,43.5 194.5,42.5 194.5,41.5C 195.725,40.8478 196.392,39.6811 196.5,38C 196.252,36.2841 195.585,34.7841 194.5,33.5C 195.438,32.4471 196.605,31.7804 198,31.5C 200.009,31.9949 202.176,31.9949 204.5,31.5C 204.329,34.7973 204.995,35.1306 206.5,32.5C 210.411,30.8154 213.745,31.4821 216.5,34.5 Z M 209.5,34.5 C 211.722,34.5587 212.722,35.7253 212.5,38C 211.167,42.6667 209.833,42.6667 208.5,38C 208.648,36.7441 208.982,35.5774 209.5,34.5 Z"/></g>
<g><path style="opacity:0.624" fill="#000000" d="M 239.5,39.5 C 237.174,38.3099 236.007,36.3099 236,33.5C 234.023,36.5893 232.523,39.9226 231.5,43.5C 230.635,44.5827 229.635,44.7494 228.5,44C 227.853,42.3905 227.02,40.8905 226,39.5C 225.735,41.6515 224.735,43.3181 223,44.5C 222.228,44.3552 221.561,44.0219 221,43.5C 220.337,39.9647 218.837,36.9647 216.5,34.5C 216.5,33.5 216.5,32.5 216.5,31.5C 218.833,31.5 221.167,31.5 223.5,31.5C 222.127,38.6193 222.627,38.9527 225,32.5C 226.011,31.6634 227.178,31.33 228.5,31.5C 228.687,33.5643 229.187,35.5643 230,37.5C 231.441,35.6951 231.608,33.6951 230.5,31.5C 235.331,31.7873 240.164,32.1206 245,32.5C 245.783,34.4335 245.283,35.9335 243.5,37C 246.167,39.3333 246.167,41.6667 243.5,44C 241.167,44.6667 238.833,44.6667 236.5,44C 235.62,42.6439 235.286,41.1439 235.5,39.5C 236.833,39.5 238.167,39.5 239.5,39.5 Z M 239.5,35.5 C 240.386,34.2241 241.386,34.2241 242.5,35.5C 241.767,36.087 240.767,36.087 239.5,35.5 Z M 239.5,39.5 C 241.337,39.6395 241.67,40.3061 240.5,41.5C 239.702,41.0431 239.369,40.3764 239.5,39.5 Z"/></g>
<g><path style="opacity:0.636" fill="#000000" d="M 249.5,31.5 C 252.365,31.0548 254.865,31.7215 257,33.5C 258.194,32.5697 259.527,31.9031 261,31.5C 263.009,31.9949 265.176,31.9949 267.5,31.5C 267.5,32.8333 267.5,34.1667 267.5,35.5C 266.167,35.5 264.833,35.5 263.5,35.5C 263.508,38.5448 263.841,41.5448 264.5,44.5C 262.5,44.5 260.5,44.5 258.5,44.5C 259.553,41.1485 259.553,37.8151 258.5,34.5C 257.571,35.6888 257.238,37.0222 257.5,38.5C 255.076,38.1924 252.743,38.5258 250.5,39.5C 252.611,42.0443 254.778,42.0443 257,39.5C 257.781,40.9437 257.614,42.277 256.5,43.5C 248.697,45.532 245.53,42.532 247,34.5C 248.045,33.6266 248.878,32.6266 249.5,31.5 Z"/></g>
<g><path style="opacity:0.833" fill="#000000" d="M 69.5,46.5 C 73.1817,46.3347 76.8484,46.5014 80.5,47C 82.8689,47.5359 84.8689,48.7026 86.5,50.5C 87.2941,56.7829 87.7941,63.1162 88,69.5C 88.6667,70.8333 89.3333,70.8333 90,69.5C 90.2022,67.7444 90.7022,66.0777 91.5,64.5C 92.4713,72.6848 88.8046,75.8515 80.5,74C 79.0692,73.5348 77.9025,72.7014 77,71.5C 71.3913,75.716 66.0579,75.3827 61,70.5C 59.0886,62.494 62.2553,58.6606 70.5,59C 63.11,59.9622 60.61,57.1289 63,50.5C 65.0129,48.7518 67.1795,47.4185 69.5,46.5 Z M 71.5,48.5 C 72.8333,48.5 74.1667,48.5 75.5,48.5C 76.5767,51.5258 76.5767,54.5258 75.5,57.5C 74.277,58.6139 72.9437,58.7805 71.5,58C 74.0795,54.8742 74.0795,51.7076 71.5,48.5 Z M 75.5,59.5 C 77.0915,63.6682 76.5915,67.6682 74,71.5C 72.4303,68.3665 72.0969,65.0332 73,61.5C 73.9947,60.9341 74.828,60.2674 75.5,59.5 Z"/></g>
<g><path style="opacity:0.816" fill="#000000" d="M 157.5,73.5 C 158.574,78.635 156.907,82.4683 152.5,85C 145.075,87.1595 137.742,86.9929 130.5,84.5C 127.738,81.6123 128.071,79.1123 131.5,77C 130.333,75.8333 129.167,74.6667 128,73.5C 122.221,74.8074 116.388,74.8074 110.5,73.5C 110.808,72.6919 111.308,72.0253 112,71.5C 112.667,64.5 112.667,57.5 112,50.5C 108.938,48.8695 107.271,49.8695 107,53.5C 106.333,58.8333 106.333,64.1667 107,69.5C 108.438,70.9003 109.271,72.567 109.5,74.5C 103.824,74.6661 98.1569,74.4994 92.5,74C 91.1667,73.3333 91.1667,72.6667 92.5,72C 93.448,71.5172 94.448,71.3505 95.5,71.5C 95.8306,64.1365 95.4973,56.8032 94.5,49.5C 93.3279,49.0814 92.3279,48.4147 91.5,47.5C 94,47.1667 96.5,46.8333 99,46.5C 101.95,46.5676 104.617,47.2343 107,48.5C 112.217,45.7804 117.384,45.9471 122.5,49C 123.126,49.7504 123.626,50.5838 124,51.5C 124.5,58.1583 124.666,64.825 124.5,71.5C 127.346,71.1913 128.846,69.5246 129,66.5C 130.074,65.3816 131.24,64.3816 132.5,63.5C 127.294,53.912 130.127,48.2453 141,46.5C 143.713,46.411 146.213,47.0776 148.5,48.5C 149.5,48 150.5,47.5 151.5,47C 155,46.8333 158.5,46.6667 162,46.5C 165.931,46.5442 169.598,47.2109 173,48.5C 176.716,46.066 180.549,45.8993 184.5,48C 187.314,51.9364 186.981,55.6031 183.5,59C 176.32,60.6595 173.154,57.8261 174,50.5C 172.575,57.3846 172.075,64.3846 172.5,71.5C 174.103,71.3118 175.437,71.8118 176.5,73C 170.175,73.4995 163.842,73.6662 157.5,73.5 Z M 139.5,48.5 C 140.5,48.5 141.5,48.5 142.5,48.5C 143.463,52.796 143.629,57.1294 143,61.5C 142.581,62.6721 141.915,63.6721 141,64.5C 138.354,59.4143 137.854,54.081 139.5,48.5 Z M 157.5,73.5 C 155.931,70.7716 153.598,68.9383 150.5,68C 144.804,67.8299 139.138,67.3299 133.5,66.5C 135.979,65.3267 138.479,65.3267 141,66.5C 148.938,65.7314 152.772,61.398 152.5,53.5C 156.943,55.1734 159.109,53.5068 159,48.5C 159.333,48.8333 159.667,49.1667 160,49.5C 160.831,56.856 160.665,64.1893 159.5,71.5C 158.478,71.8555 157.811,72.5222 157.5,73.5 Z M 132.5,78.5 C 138.842,78.3338 145.175,78.5005 151.5,79C 153.13,82.0623 152.13,83.729 148.5,84C 142.813,84.9735 137.313,84.4735 132,82.5C 131.421,81.0715 131.588,79.7382 132.5,78.5 Z"/></g>
<g><path style="opacity:0.827" fill="#000000" d="M 217.5,72.5 C 212.416,75.4259 207.583,75.0925 203,71.5C 198.863,74.8291 194.363,75.3291 189.5,73C 184.085,64.4971 186.418,59.8304 196.5,59C 189.158,60.0065 186.658,57.1732 189,50.5C 196.151,45.7907 203.651,45.2907 211.5,49C 212.126,49.7504 212.626,50.5838 213,51.5C 213.333,57.1667 213.667,62.8333 214,68.5C 214.317,70.3008 214.984,70.6341 216,69.5C 216.202,67.7444 216.702,66.0777 217.5,64.5C 218.614,67.1562 218.614,69.8229 217.5,72.5 Z M 198.5,48.5 C 201.62,48.8739 202.954,50.7072 202.5,54C 202.896,57.9388 201.229,59.2721 197.5,58C 198.872,56.7581 199.872,55.2581 200.5,53.5C 199.544,51.9246 198.877,50.258 198.5,48.5 Z M 201.5,59.5 C 202.641,62.6399 202.808,65.9733 202,69.5C 201.333,70.1667 200.667,70.8333 200,71.5C 198.43,68.3665 198.097,65.0332 199,61.5C 199.995,60.9341 200.828,60.2674 201.5,59.5 Z"/></g>
<g><path style="opacity:0.83" fill="#000000" d="M 217.5,72.5 C 218.708,71.7659 220.041,71.4326 221.5,71.5C 221.831,64.1365 221.497,56.8032 220.5,49.5C 219.328,49.0814 218.328,48.4147 217.5,47.5C 220,47.1667 222.5,46.8333 225,46.5C 227.95,46.5676 230.617,47.2343 233,48.5C 238.375,45.6343 243.541,45.9676 248.5,49.5C 254.635,45.2388 260.468,45.5721 266,50.5C 266.333,57.1667 266.667,63.8333 267,70.5C 268.255,71.2106 269.421,72.044 270.5,73C 267.691,74.1218 264.691,74.6218 261.5,74.5C 249.833,74.5 238.167,74.5 226.5,74.5C 223.833,74.3333 221.167,74.1667 218.5,74C 217.944,73.6174 217.611,73.1174 217.5,72.5 Z M 234.5,49.5 C 236.124,49.3601 237.29,50.0267 238,51.5C 238.831,58.1915 238.664,64.8582 237.5,71.5C 236.28,72.7111 235.113,72.7111 234,71.5C 233.204,64.0869 233.37,56.7535 234.5,49.5 Z M 251.5,49.5 C 253.124,49.3601 254.29,50.0267 255,51.5C 255.667,57.8333 255.667,64.1667 255,70.5C 253.921,72.3937 252.587,72.727 251,71.5C 250.792,65.449 250.292,59.449 249.5,53.5C 250.18,52.1401 250.847,50.8068 251.5,49.5 Z"/></g>
</svg>
